<svg xmlns="http://www.w3.org/2000/svg" viewBox="0 0 100 100" width="512" height="512">
  <!-- Gear + Wrench | White fill, transparent background -->

  <!-- Gear with 8 teeth, inner hole punched by even-odd rule -->
  <path fill="white" stroke="none" fill-rule="evenodd" d="M 47.800,19.355 L 47.800,12.277 L 56.200,12.277 L 56.200,19.355 L 66.457,23.604 L 71.462,18.598 L 77.402,24.538 L 72.396,29.543 L 76.645,39.800 L 83.723,39.800 L 83.723,48.200 L 76.645,48.200 L 72.396,58.457 L 77.402,63.462 L 71.462,69.402 L 66.457,64.396 L 56.200,68.645 L 56.200,75.723 L 47.800,75.723 L 47.800,68.645 L 37.543,64.396 L 32.538,69.402 L 26.598,63.462 L 31.604,58.457 L 27.355,48.200 L 20.277,48.200 L 20.277,39.800 L 27.355,39.800 L 31.604,29.543 L 26.598,24.538 L 32.538,18.598 L 37.543,23.604 Z M 68.000,44.000 A 16,16 0 1,0 36.000,44.000 A 16,16 0 1,0 68.000,44.000 Z"/>

  <!-- Wrench handle -->
  <line x1="45.106" y1="50.894" x2="19.650" y2="76.350"
        stroke="white" stroke-width="11" stroke-linecap="round"/>

  <!-- Wrench C-head -->
  <path fill="white" stroke="none" d="M 39.443,40.635 A 13.0,13.0 0 1,0 55.365,56.557 L 53.682,50.279 A 6.5,6.5 0 1,1 45.721,42.318 Z"/>

</svg>