<svg xmlns="http://www.w3.org/2000/svg" viewBox="0 0 300 84" fill="none">
  <!-- Chat-bubble mark with brass wrench -->
  <path d="M10 8h52a8 8 0 0 1 8 8v36a8 8 0 0 1-8 8H32l-14 12V60h-8a8 8 0 0 1-8-8V16a8 8 0 0 1 8-8z" fill="#19211F" stroke="#CBA15A" stroke-width="2"/>
  <path d="M48 22a9 9 0 0 0-10.6 11.3L29 41.7l5.3 5.3 8.4-8.4A9 9 0 0 0 54 27.9l-5 5-3.2-3.2 5-5A9.1 9.1 0 0 0 48 22z" fill="#CBA15A"/>
  <!-- Wordmark -->
  <text x="88" y="52" font-family="'Schibsted Grotesk', system-ui, sans-serif" font-weight="800" font-size="44" letter-spacing="-1" fill="#ECEAE1">Tukang</text>
  <circle cx="268" cy="46" r="6" fill="#CBA15A"/>
</svg>
